# xmcd
#
# Track frame offsets:
#	150
#	24675
#	39298
#	56220
#	73498
#	97405
#	114563
#	133493
#	155985
#	172753
#
# Disc length: 2933 seconds
#
# Revision: 1
# Processed by: cddbd v1.5PL3 Copyright (c) Steve Scherf et al.
# Submitted via: CDex 1.50Beta5
#
DISCID=9c0b730a
DTITLE=Andre Gagnon - Leternel Retour
DYEAR=2000
DGENRE=
TTITLE0=L' Eternal Retour
TTITLE1=Separation
TTITLE2=Chanson Pour Liona
TTITLE3=Berceuse Pour Nous Deux
TTITLE4=Aria
TTITLE5=Un Amor Particulier
TTITLE6=Il Niege Sur Kamouraska
TTITLE7=Nelligan
TTITLE8=Lettre a Clara
TTITLE9=Charlevoix
EXTD=
EXTT0=
EXTT1=
EXTT2=
EXTT3=
EXTT4=
EXTT5=
EXTT6=
EXTT7=
EXTT8=
EXTT9=
PLAYORDER=
